<svg xmlns="http://www.w3.org/2000/svg" viewBox="0 0 2000 2000"><path fill="#009aff" d="M875.62 1126.46h-13.21c-5.03 0-10.17-.42-15.4-1.23l-13.75-2.11-.05.25-24.63-4.4 50.43-284.16h-51.25l-56.32 317.36c3.67-.13 7.72-.19 12.17-.19 12.58 0 38.72 3.2 77.07 9.13 19.38 2.77 34.84 4.08 46.57 4.08 19.8 0 33.28-4.47 42.22-11.63 9.27-7.49 13.6-16.56 13.6-28.35 0-6.16-.54-11.21-1.42-15.42-18.74 11.27-40.95 16.67-66.03 16.67zm71.86-38.75zm98.4 75.13c-20.08 0-37.51-3.7-52.31-11.1-14.44-7.75-25.54-19.37-33.29-34.87-7.75-15.5-11.62-35.05-11.62-58.65 0-22.19 2.99-44.21 8.98-66.04 6.34-22.19 15.67-42.27 28-60.23 12.33-17.96 28-32.41 47.02-43.32 19.37-10.92 42.09-16.38 68.16-16.38 13.74 0 26.07 1.94 36.98 5.81 10.92 3.87 19.55 10.21 25.89 19.02 6.34 8.81 9.51 20.78 9.51 35.93 0 20.43-6.16 37.69-18.49 51.78-11.97 13.74-28 24.3-48.08 31.7-20.08 7.04-42.27 10.57-66.57 10.57h-15.32c-5.28-.35-9.69-.71-13.21-1.06-.35 5.63-.71 11.27-1.06 16.91-.35 5.28-.53 10.22-.53 14.79 0 19.02 3.52 33.99 10.57 44.91 7.05 10.57 19.9 15.85 38.57 15.85 15.14 0 28.71-3.52 40.68-10.57 11.97-7.4 21.31-17.79 28-31.17 4.93 1.41 8.28 4.23 10.04 8.45 1.76 4.23 2.64 8.63 2.64 13.21 0 10.57-3.7 20.78-11.1 30.64-7.4 9.86-18.14 17.96-32.23 24.3s-31.15 9.52-51.23 9.52zm-30.64-162.74c11.97 0 23.78-1.23 35.4-3.7 11.97-2.47 22.9-6.34 32.76-11.62 9.86-5.64 17.61-12.68 23.25-21.13 5.99-8.81 8.98-19.02 8.98-30.64 0-10.21-2.46-17.79-7.4-22.72-4.58-5.28-11.27-7.93-20.08-7.93-9.86 0-19.02 3.17-27.47 9.51-8.1 5.99-15.14 13.91-21.13 23.78-5.99 9.86-11.1 20.43-15.32 31.7-3.89 11.27-6.88 22.19-8.99 32.75zm197.09 158.51h-6.34c-1.76 0-3.7-.18-5.81-.53-.71-28.88-1.59-56.88-2.64-84.01-1.06-27.12-2.46-52.48-4.23-76.08-1.76-23.95-4.05-44.73-6.87-62.35-1.76-14.09-4.05-24.83-6.87-32.23-2.82-7.4-7.75-13.03-14.79-16.91 3.88-4.58 8.8-8.1 14.79-10.57 6.34-2.47 13.56-3.7 21.66-3.7 17.61 0 29.59 5.28 35.93 15.85 6.69 10.21 10.92 26.07 12.68 47.55.71 5.64 1.23 13.21 1.59 22.72.35 9.16.71 21.31 1.06 36.46.35 14.79.53 34.17.53 58.12v28c0 10.21-.18 21.31-.53 33.29 9.86-13.03 19.55-27.47 29.06-43.32 9.51-16.2 18.14-33.11 25.89-50.72s13.91-35.22 18.49-52.84c4.58-17.61 6.87-34.34 6.87-50.19 0-4.58-.35-9.51-1.06-14.79a82.502 82.502 0 0 0-2.64-15.85c4.58-4.23 10.39-7.57 17.44-10.04 7.4-2.82 14.97-4.23 22.72-4.23 7.75 0 13.74 1.41 17.96 4.23 4.23 2.47 7.05 6.34 8.45 11.62 1.76 4.93 2.64 11.27 2.64 19.02 0 15.15-2.99 32.05-8.98 50.72-5.63 18.67-13.21 37.16-22.72 55.48-9.51 18.31-19.73 35.22-30.64 50.72-22.9 31.7-43.85 55.48-62.87 71.33-19.03 15.5-39.29 23.25-60.77 23.25zm264.64 4.23c-18.31 0-33.46-2.82-45.44-8.45-11.62-5.63-20.78-13.03-27.47-22.19-6.69-9.51-11.45-19.73-14.27-30.64-2.46-11.27-3.7-22.19-3.7-32.76 0-23.95 2.82-47.55 8.45-70.8 5.99-23.25 14.97-44.38 26.95-63.4 12.33-19.02 27.83-34.17 46.49-45.44 19.02-11.27 41.74-16.91 68.16-16.91 18.67 0 33.81 2.82 45.44 8.45s20.78 13.21 27.47 22.72c7.05 9.16 11.8 19.37 14.27 30.64 2.46 10.92 3.7 21.49 3.7 31.7 0 23.95-2.99 47.73-8.98 71.33-5.63 23.25-14.62 44.38-26.95 63.4-11.97 19.02-27.47 34.17-46.49 45.44-18.67 11.27-41.21 16.91-67.63 16.91zm10.04-31.71c10.57 0 20.08-3.52 28.53-10.57 8.45-7.05 15.85-16.56 22.19-28.53 6.34-12.33 11.45-25.89 15.32-40.68 4.23-15.14 7.4-30.64 9.51-46.5s3.17-31.17 3.17-45.97c0-16.2-2.82-29.41-8.45-39.63-5.63-10.21-15.85-15.32-30.64-15.32-10.57 0-20.25 3.52-29.06 10.57-8.8 7.04-16.38 16.56-22.72 28.53-5.99 11.98-11.1 25.54-15.32 40.68-4.23 14.79-7.4 30.29-9.51 46.49-1.76 15.85-2.64 31.17-2.64 45.97 0 15.85 2.82 29.06 8.45 39.63 5.99 10.23 16.38 15.33 31.17 15.33z"/><path fill="#8ad1ff" d="M651.6 902.54h-41.28c-17.1 0-30.96-13.86-30.96-30.96s13.86-30.96 30.96-30.96h41.28c17.1 0 30.96 13.86 30.96 30.96s-13.87 30.96-30.96 30.96zm0 255.92H403.93c-17.1 0-30.96-13.86-30.96-30.96s13.86-30.96 30.96-30.96H651.6c17.1 0 30.96 13.86 30.96 30.96s-13.87 30.96-30.96 30.96zm0-127.96H507.12c-17.1 0-30.96-13.86-30.96-30.96s13.86-30.96 30.96-30.96H651.6c17.1 0 30.96 13.86 30.96 30.96s-13.87 30.96-30.96 30.96z"/></svg>